<?xml version="1.0" standalone="no"?>
<!DOCTYPE svg PUBLIC "-//W3C//DTD SVG 20010904//EN"
 "http://www.w3.org/TR/2001/REC-SVG-20010904/DTD/svg10.dtd">
<svg version="1.0" xmlns="http://www.w3.org/2000/svg"
 width="1280.000000pt" height="1280.000000pt" viewBox="0 0 1280.000000 1280.000000"
 preserveAspectRatio="xMidYMid meet">
<metadata>
Created by potrace 1.15, written by Peter Selinger 2001-2017
</metadata>
<g transform="translate(0.000000,1280.000000) scale(0.100000,-0.100000)"
fill="#000000" stroke="none">
<path d="M0 10665 l0 -2135 2135 0 2135 0 0 2135 0 2135 -2135 0 -2135 0 0
-2135z m3650 5 l0 -1520 -1520 0 -1520 0 0 1520 0 1520 1520 0 1520 0 0 -1520z"/>
<path d="M1220 10665 l0 -915 915 0 915 0 0 915 0 915 -915 0 -915 0 0 -915z"/>
<path d="M6090 12495 l0 -305 310 0 310 0 0 305 0 305 -310 0 -310 0 0 -305z"/>
<path d="M7310 12190 l0 -610 310 0 310 0 0 610 0 610 -310 0 -310 0 0 -610z"/>
<path d="M8530 10665 l0 -2135 2135 0 2135 0 0 2135 0 2135 -2135 0 -2135 0 0
-2135z m3660 5 l0 -1520 -1520 0 -1520 0 0 1520 0 1520 1520 0 1520 0 0 -1520z"/>
<path d="M9750 10665 l0 -915 915 0 915 0 0 915 0 915 -915 0 -915 0 0 -915z"/>
<path d="M4870 11275 l0 -305 310 0 310 0 0 305 0 305 -310 0 -310 0 0 -305z"/>
<path d="M6090 11275 l0 -305 310 0 310 0 0 305 0 305 -310 0 -310 0 0 -305z"/>
<path d="M7310 10665 l0 -305 -305 0 -305 0 0 -305 0 -305 -300 0 -300 0 0
305 0 305 -310 0 -310 0 0 -605 0 -605 -302 -2 -303 -3 -3 -607 -2 -608 -1215
0 -1215 0 0 -305 0 -305 -305 0 -305 0 0 305 0 305 -915 0 -915 0 0 -310 0
-310 305 0 305 0 0 -300 0 -300 -305 0 -305 0 0 -615 0 -615 305 0 305 0 0
305 0 305 305 0 305 0 0 -610 0 -610 305 0 305 0 0 610 0 610 305 0 305 0 0
-610 0 -610 305 0 305 0 0 615 0 615 -305 0 -305 0 0 300 0 300 305 0 305 0 0
305 0 305 910 0 910 0 0 -300 0 -300 -607 -2 -608 -3 0 -305 0 -305 607 -3
608 -2 2 -303 3 -302 303 -3 302 -2 0 -300 0 -300 -305 0 -305 0 0 -1220 0
-1220 305 0 305 0 0 -305 0 -305 -305 0 -305 0 0 -915 0 -915 310 0 310 0 0
915 0 915 300 0 300 0 0 -305 0 -305 920 0 920 0 0 610 0 610 -310 0 -310 0 0
-305 0 -305 -605 0 -605 0 0 305 0 305 305 0 305 0 0 305 0 305 305 0 305 0 0
300 0 300 910 0 910 0 0 -300 0 -300 305 0 305 0 0 -610 0 -610 -300 0 -300 0
0 305 0 305 -310 0 -310 0 0 -305 0 -305 305 0 305 0 0 -305 0 -305 305 0 305
0 0 -305 0 -305 -305 0 -305 0 0 -305 0 -305 305 0 305 0 0 305 0 305 305 0
305 0 2 1827 3 1828 303 3 302 2 0 -310 0 -310 305 0 305 0 0 -910 0 -910 305
0 305 0 0 -305 0 -305 -305 0 -305 0 0 -610 0 -610 610 0 610 0 0 305 0 305
-305 0 -305 0 0 305 0 305 305 0 305 0 0 305 0 305 -305 0 -305 0 0 910 0 910
305 0 305 0 0 310 0 310 -305 0 -305 0 0 300 0 300 305 0 305 0 0 1225 0 1225
-610 0 -610 0 0 305 0 305 -305 0 -305 0 0 -610 0 -610 -610 0 -610 0 0 305 0
305 -300 0 -300 0 -2 303 -3 302 -915 0 -915 0 -3 -302 -2 -303 -300 0 -300 0
0 910 0 910 300 0 300 0 0 -305 0 -305 308 2 307 3 0 305 0 305 -302 3 -303 2
0 300 0 300 305 0 305 0 0 610 0 610 -310 0 -310 0 0 -305z m-1220 -3045 l0
-1520 -605 0 -605 0 0 300 0 300 305 0 305 0 0 1220 0 1220 300 0 300 0 0
-1520z m-4260 -610 l0 -300 -305 0 -305 0 0 300 0 300 305 0 305 0 0 -300z
m6700 -310 l0 -610 305 0 305 0 0 -305 0 -305 305 0 305 0 0 -300 0 -300 -915
0 -915 0 0 -305 0 -305 -300 0 -300 0 0 605 0 605 303 2 302 3 0 305 0 305
-302 3 -303 2 0 605 0 605 605 0 605 0 0 -610z m3050 -305 l0 -305 305 0 305
0 0 -300 0 -300 -305 0 -305 0 0 -610 0 -610 -305 0 -305 0 0 305 0 305 -305
0 -305 0 0 300 0 300 305 0 305 0 0 610 0 610 305 0 305 0 0 -305z m-1220
-605 l0 -300 -305 0 -305 0 0 300 0 300 305 0 305 0 0 -300z m-3660 -610 l0
-300 -300 0 -300 0 0 300 0 300 300 0 300 0 0 -300z m-608 -1217 l3 -308 303
-3 302 -2 0 -300 0 -300 -305 0 -305 0 0 -305 0 -305 -300 0 -300 0 0 915 0
915 300 0 300 0 2 -307z m1218 2 l0 -305 -300 0 -300 0 0 305 0 305 300 0 300
0 0 -305z m2440 0 l0 -305 -300 0 -300 0 0 305 0 305 300 0 300 0 0 -305z"/>
<path d="M3655 5477 c-3 -7 -4 -145 -3 -307 l3 -295 305 0 305 0 3 308 2 307
-305 0 c-237 0 -307 -3 -310 -13z"/>
<path d="M0 2135 l0 -2135 2135 0 2135 0 0 2135 0 2135 -2135 0 -2135 0 0
-2135z m3650 -5 l0 -1520 -1520 0 -1520 0 0 1520 0 1520 1520 0 1520 0 0
-1520z"/>
<path d="M1220 2135 l0 -915 915 0 915 0 0 915 0 915 -915 0 -915 0 0 -915z"/>
<path d="M6090 305 l0 -305 1220 0 1220 0 0 305 0 305 -1220 0 -1220 0 0 -305z"/>
</g>
</svg>
